HIERARCHY
ROOT Hips
{
	OFFSET 0.000000 0.000000 0.000000
	CHANNELS 6 Xposition Yposition Zposition Zrotation Yrotation Xrotation 
	JOINT LHipJoint
	{
		OFFSET 0.000000 0.000000 0.000000
		CHANNELS 3 Zrotation Yrotation Xrotation
		JOINT LeftUpLeg
		{
			OFFSET 1.363060 -1.794630 0.839290
			CHANNELS 3 Zrotation Yrotation Xrotation
			JOINT LeftLeg
			{
				OFFSET 2.448110 -6.726130 0.000000
				CHANNELS 3 Zrotation Yrotation Xrotation
				JOINT LeftFoot
				{
					OFFSET 2.562200 -7.039590 0.000000
					CHANNELS 3 Zrotation Yrotation Xrotation
					JOINT LeftToeBase
					{
						OFFSET 0.157640 -0.433110 2.322550
						CHANNELS 3 Zrotation Yrotation Xrotation
						End Site
						{
							OFFSET 0.000000 0.000000 0.000000
						}
					}
				}
			}
		}
	}
	JOINT RHipJoint
	{
		OFFSET 0.000000 0.000000 0.000000
		CHANNELS 3 Zrotation Yrotation Xrotation
		JOINT RightUpLeg
		{
			OFFSET -1.305520 -1.794630 0.839290
			CHANNELS 3 Zrotation Yrotation Xrotation
			JOINT RightLeg
			{
				OFFSET -2.542530 -6.985550 0.000000
				CHANNELS 3 Zrotation Yrotation Xrotation
				JOINT RightFoot
				{
					OFFSET -2.568260 -7.056230 0.000000
					CHANNELS 3 Zrotation Yrotation Xrotation
					JOINT RightToeBase
					{
						OFFSET -0.164730 -0.452590 2.363150
						CHANNELS 3 Zrotation Yrotation Xrotation
						End Site
						{
							OFFSET 0.000000 0.000000 0.000000
						}
					}
				}
			}
		}
	}
	JOINT LowerBack
	{
		OFFSET 0.000000 0.000000 0.000000
		CHANNELS 3 Zrotation Yrotation Xrotation
		JOINT Spine
		{
			OFFSET 0.028270 2.035590 -0.193380
			CHANNELS 3 Zrotation Yrotation Xrotation
			JOINT Spine1
			{
				OFFSET 0.056720 2.048850 -0.042750
				CHANNELS 3 Zrotation Yrotation Xrotation
				JOINT Neck
				{
					OFFSET 0.000000 0.000000 0.000000
					CHANNELS 3 Zrotation Yrotation Xrotation
					JOINT Neck1
					{
						OFFSET -0.054170 1.746240 0.172020
						CHANNELS 3 Zrotation Yrotation Xrotation
						JOINT Head
						{
							OFFSET 0.104070 1.761360 -0.123970
							CHANNELS 3 Zrotation Yrotation Xrotation
							End Site
							{
								OFFSET 0.000000 0.000000 0.000000
							}
						}
					}
				}
				JOINT LeftShoulder
				{
					OFFSET 0.000000 0.000000 0.000000
					CHANNELS 3 Zrotation Yrotation Xrotation
					JOINT LeftArm
					{
						OFFSET 3.362410 1.200890 -0.311210
						CHANNELS 3 Zrotation Yrotation Xrotation
						JOINT LeftForeArm
						{
							OFFSET 4.983000 -0.000000 -0.000000
							CHANNELS 3 Zrotation Yrotation Xrotation
							JOINT LeftHand
							{
								OFFSET 3.483560 -0.000000 -0.000000
								CHANNELS 3 Zrotation Yrotation Xrotation
								JOINT LeftFingerBase
								{
									OFFSET 0.000000 0.000000 0.000000
									CHANNELS 3 Zrotation Yrotation Xrotation
									JOINT LeftHandIndex1
									{
										OFFSET 0.715260 -0.000000 -0.000000
										CHANNELS 3 Zrotation Yrotation Xrotation
										End Site
										{
											OFFSET 0.000000 0.000000 0.000000
										}
									}
								}
								JOINT LThumb
								{
									OFFSET 0.000000 0.000000 0.000000
									CHANNELS 3 Zrotation Yrotation Xrotation
									End Site
									{
										OFFSET 0.000000 0.000000 0.000000
									}
								}
							}
						}
					}
				}
				JOINT RightShoulder
				{
					OFFSET 0.000000 0.000000 0.000000
					CHANNELS 3 Zrotation Yrotation Xrotation
					JOINT RightArm
					{
						OFFSET -3.136600 1.374050 -0.404650
						CHANNELS 3 Zrotation Yrotation Xrotation
						JOINT RightForeArm
						{
							OFFSET -5.241900 -0.000000 -0.000000
							CHANNELS 3 Zrotation Yrotation Xrotation
							JOINT RightHand
							{
								OFFSET -3.444170 -0.000000 -0.000000
								CHANNELS 3 Zrotation Yrotation Xrotation
								JOINT RightFingerBase
								{
									OFFSET 0.000000 0.000000 0.000000
									CHANNELS 3 Zrotation Yrotation Xrotation
									JOINT RightHandIndex1
									{
										OFFSET -0.622530 -0.000000 -0.000000
										CHANNELS 3 Zrotation Yrotation Xrotation
										End Site
										{
											OFFSET 0.000000 0.000000 0.000000
										}
									}
								}
								JOINT RThumb
								{
									OFFSET 0.000000 0.000000 0.000000
									CHANNELS 3 Zrotation Yrotation Xrotation
									End Site
									{
										OFFSET 0.000000 0.000000 0.000000
									}
								}
							}
						}
					}
				}
			}
		}
	}
}
MOTION
Frames: 10
Frame Time: 0.008333
4.928687 15.676257 0.572805 94.849627 -87.758489 -63.581221 -8.318351 -0.891210 2.484853 -6.314590 -5.869844 -62.444559 -1.254330 2.603774 50.430349 2.506057 8.289057 -18.733268 -1.547300 -0.000000 -49.917300 10.318262 2.710430 2.414258 -0.432532 -1.321825 -64.904451 0.570740 -4.426110 55.337588 -2.559247 -7.244958 -17.869019 0.937299 0.000000 -61.865099 -2.989232 -2.648423 -3.417431 -1.044602 -2.464696 -4.729101 -4.781733 -2.457656 -5.756608 5.556082 0.408712 -0.687847 -1.907395 -0.227612 1.718715 0.000000 0.000000 0.000000 8.183910 0.951470 -0.938723 -70.150684 -54.501710 5.366318 179.123372 -78.252850 179.863484 7.573932 -5.464755 -0.423616 0.075555 1.005614 -0.000000 0.000000 0.000000 0.000000 0.000000 0.000000 0.000000 0.159371 3.406438 -2.208204 72.058797 50.795900 -5.084092 -178.462835 80.274882 179.776156 -10.791894 16.735020 -1.677416 -0.131694 -1.044172 -0.000000 0.000000 0.000000 0.000000 0.000000 0.000000 0.000000 
4.913632 15.661902 0.514245 104.857512 -87.616940 -73.848332 -8.325091 -0.955345 2.510896 -6.215709 -5.652027 -62.210171 -1.202152 2.578543 50.714464 2.584840 8.743025 -18.751592 -1.614600 0.000000 -50.025100 10.360053 2.574080 2.579546 -0.419941 -0.959126 -64.998829 0.528389 -4.454462 55.770179 -2.538505 -7.104750 -18.125270 0.967500 0.000000 -61.907099 -2.960362 -2.824909 -3.713112 -1.021333 -2.645098 -4.766133 -4.768804 -2.637519 -5.679472 5.518928 -0.058309 -1.093126 -1.960670 -0.225848 1.613299 0.000000 0.000000 0.000000 8.598639 0.748527 -0.785829 -68.499106 -53.185134 3.614868 179.204230 -79.351131 179.862469 7.796578 -5.324532 -0.426648 0.063489 0.995024 -0.000000 0.000000 0.000000 0.000000 0.000000 0.000000 0.000000 0.570683 3.008211 -2.100020 72.481697 51.690451 -3.712961 -178.758011 83.420038 179.777784 -10.899030 16.490429 -1.668026 -0.134250 -1.022496 -0.000000 0.000000 0.000000 0.000000 0.000000 0.000000 0.000000 
4.896293 15.650656 0.454053 114.345865 -87.348591 -83.625151 -8.377981 -1.023473 2.550960 -6.109814 -5.435535 -61.891796 -1.155952 2.547706 50.919609 2.665348 9.199699 -18.808955 -1.690600 0.000000 -49.924000 10.358161 2.419390 2.749714 -0.409634 -0.566437 -65.021759 0.487281 -4.463884 56.140790 -2.518007 -6.964178 -18.369900 0.995300 -0.000001 -61.963400 -2.971174 -3.008256 -4.036725 -1.003660 -2.829056 -4.808151 -4.754253 -2.822928 -5.596879 5.483085 -0.535818 -1.500959 -2.015722 -0.224295 1.508291 0.000000 0.000000 0.000000 9.046521 0.509714 -0.632616 -66.844541 -51.630454 1.902396 179.291837 -80.518871 179.862025 8.010215 -5.150659 -0.426072 0.050736 0.982291 0.000000 0.000000 0.000000 0.000000 0.000000 0.000000 0.000000 0.999275 2.610769 -1.981838 73.053928 52.640240 -2.061704 -179.084923 86.794834 179.779493 -11.025517 16.290212 -1.665731 -0.135345 -1.001176 -0.000000 0.000000 0.000000 0.000000 0.000000 0.000000 0.000000 
4.876913 15.643269 0.392496 123.125864 -86.953931 -92.729950 -8.473260 -1.084011 2.601910 -5.987997 -5.211740 -61.470865 -1.116910 2.513609 51.041575 2.751289 9.672768 -18.928312 -1.782900 -0.000000 -49.612700 10.314777 2.258739 2.923370 -0.400538 -0.119525 -64.951947 0.445888 -4.448420 56.438855 -2.498350 -6.828514 -18.597181 1.020900 0.000000 -62.038300 -3.011837 -3.188174 -4.382583 -0.990422 -3.006908 -4.854205 -4.738645 -3.004337 -5.508257 5.449397 -1.018842 -1.910283 -2.071784 -0.222897 1.403844 0.000000 0.000000 0.000000 9.523608 0.237736 -0.475953 -65.215662 -49.823977 0.266354 179.385436 -81.752458 179.862573 8.192581 -4.927550 -0.419388 0.037697 0.966801 0.000000 0.000000 0.000000 0.000000 0.000000 0.000000 0.000000 1.439675 2.227644 -1.853651 73.790902 53.633743 -0.108144 0.561163 89.614231 -0.218400 -11.152191 16.136001 -1.667831 -0.134968 -0.980185 -0.000000 0.000000 0.000000 0.000000 0.000000 0.000000 0.000000 
4.855448 15.640352 0.329970 130.877258 -86.441585 -100.843313 -8.601124 -1.124933 2.668009 -5.833169 -5.001649 -60.940104 -1.082095 2.476352 51.080139 2.848413 10.190801 -19.113076 -1.897300 -0.000000 -49.127001 10.238410 2.104941 3.096700 -0.385627 0.380552 -64.775092 0.405059 -4.405721 56.654439 -2.479265 -6.698173 -18.804021 1.044100 -0.000001 -62.136600 -3.061944 -3.359431 -4.749823 -0.978452 -3.175015 -4.904211 -4.723569 -3.177933 -5.411995 5.419266 -1.501254 -2.319753 -2.128303 -0.221615 1.300249 0.000000 0.000000 0.000000 10.021367 -0.067094 -0.310861 -63.643756 -47.756535 -1.254054 179.484087 -83.048844 179.864494 8.321514 -4.641528 -0.404497 0.024680 0.948023 0.000000 0.000000 0.000000 0.000000 0.000000 0.000000 0.000000 1.887110 1.870418 -1.716560 74.702048 54.650509 2.165816 0.188447 85.822049 -0.215519 -11.256942 16.024044 -1.670628 -0.133139 -0.959281 -0.000000 0.000000 0.000000 0.000000 0.000000 0.000000 0.000000 
4.832210 15.642715 0.266655 137.673134 -85.816496 -108.045424 -8.751230 -1.141707 2.745563 -5.635984 -4.809789 -60.283014 -1.047907 2.435280 51.039392 2.961895 10.787449 -19.350785 -2.037800 -0.000000 -48.527699 10.138811 1.964367 3.267949 -0.363229 0.944214 -64.472603 0.364746 -4.334916 56.775371 -2.460624 -6.576014 -18.983159 1.064499 -0.000000 -62.265100 -3.105289 -3.515487 -5.130831 -0.966061 -3.328119 -4.956832 -4.711148 -3.338010 -5.307863 5.396631 -1.974735 -2.727047 -2.184958 -0.220433 1.197896 0.000000 0.000000 0.000000 10.529600 -0.404387 -0.131639 -62.154105 -45.427479 -2.624263 179.585460 -84.405573 179.868085 8.376210 -4.283904 -0.379802 0.011972 0.925540 0.000000 0.000000 0.000000 0.000000 0.000000 0.000000 0.000000 2.341532 1.553809 -1.572575 75.787915 55.666009 4.767911 -0.191114 81.849502 -0.211458 -11.315424 15.946209 -1.669919 -0.129937 -0.938101 -0.000000 0.000000 0.000000 0.000000 0.000000 0.000000 0.000000 
4.807263 15.651005 0.202713 143.544659 -85.087044 -114.369339 -8.912876 -1.132498 2.833803 -5.388248 -4.654531 -59.492130 -1.008072 2.389059 50.929079 3.096916 11.503690 -19.606301 -2.204600 0.000000 -47.900000 10.026878 1.840642 3.434438 -0.331505 1.567188 -64.031674 0.326082 -4.237732 56.790550 -2.441543 -6.460902 -19.128243 1.080999 -0.000000 -62.430900 -3.126706 -3.653252 -5.519803 -0.951768 -3.464361 -5.011090 -4.704025 -3.482159 -5.195717 5.385938 -2.429326 -3.128918 -2.241617 -0.219363 1.097428 0.000000 0.000000 0.000000 11.034854 -0.774032 0.068061 -60.769566 -42.843137 -3.812131 179.686427 -85.823296 179.873526 8.339344 -3.850265 -0.344905 -0.000245 0.899057 0.000000 0.000000 0.000000 0.000000 0.000000 0.000000 0.000000 2.804386 1.291430 -1.425428 77.040504 56.648526 7.693548 -0.562106 77.723204 -0.205798 -11.301767 15.887531 -1.660205 -0.125492 -0.916116 -0.000000 0.000000 0.000000 0.000000 0.000000 0.000000 0.000000 
4.780875 15.665847 0.138235 148.547615 -84.263541 -119.874062 -9.076645 -1.098806 2.931584 -5.086881 -4.557424 -58.564696 -0.955020 2.336577 50.763971 3.257009 12.380116 -19.822675 -2.391700 -0.000001 -47.340600 9.912968 1.734337 3.592912 -0.290183 2.237640 -63.442314 0.290655 -4.117704 56.689941 -2.420444 -6.348532 -19.232842 1.092400 0.000000 -62.640000 -3.116340 -3.771545 -5.909889 -0.934983 -3.583311 -5.065911 -4.704727 -3.609388 -5.076688 5.391436 -2.852947 -3.520802 -2.298133 -0.218438 0.999852 0.000000 0.000000 0.000000 11.521894 -1.174984 0.293689 -59.509232 -40.019854 -4.790448 179.782638 -87.304655 179.880858 8.197431 -3.341528 -0.300512 -0.011818 0.868449 0.000000 0.000000 0.000000 0.000000 0.000000 0.000000 0.000000 3.277328 1.096704 -1.280448 78.441310 57.561377 10.919308 -0.906916 73.475585 -0.198157 -11.189592 15.827918 -1.635887 -0.120037 -0.892717 -0.000000 0.000000 0.000000 0.000000 0.000000 0.000000 0.000000 
4.753289 15.687712 0.073243 152.744916 -83.357898 -124.625284 -9.235143 -1.044374 3.037025 -4.735838 -4.540395 -57.505105 -0.880983 2.277759 50.565187 3.443225 13.450785 -19.925307 -2.584600 0.000000 -46.946400 9.806072 1.643849 3.739611 -0.241340 2.937237 -62.698313 0.260299 -3.979661 56.465458 -2.395052 -6.231263 -19.290632 1.096800 0.000000 -62.896200 -3.070921 -3.870634 -6.292945 -0.916127 -3.685401 -5.119973 -4.715450 -3.719657 -4.952815 5.416417 -3.232238 -3.897500 -2.354366 -0.217704 0.906334 0.000000 0.000000 0.000000 11.974990 -1.603372 0.549164 -58.388233 -36.983882 -5.537091 179.868843 -88.856583 179.889980 7.941433 -2.762577 -0.248528 -0.022636 0.833733 0.000000 0.000000 0.000000 0.000000 0.000000 0.000000 0.000000 3.761848 0.981769 -1.143903 79.961320 58.364910 14.399070 -1.207547 69.145612 -0.188219 -10.952018 15.742028 -1.590467 -0.113904 -0.867244 -0.000000 0.000000 0.000000 0.000000 0.000000 0.000000 0.000000 
4.724853 15.716940 0.007669 156.201836 -82.382964 -128.689812 -9.383361 -0.973963 3.147314 -4.346887 -4.621438 -56.326570 -0.779606 2.214188 50.360365 3.652814 14.733157 -19.828478 -2.757201 -0.000000 -46.802500 9.713333 1.566078 3.870623 -0.189417 3.643518 -61.796237 0.236860 -3.828964 56.111357 -2.362557 -6.098604 -19.295971 1.092400 0.000000 -63.201200 -2.993748 -3.951510 -6.660031 -0.896503 -3.771226 -5.171684 -4.737518 -3.813227 -4.826533 5.462174 -3.553249 -4.253725 -2.409940 -0.217196 0.818070 0.000000 0.000000 0.000000 12.378764 -2.050290 0.835826 -57.417947 -33.774534 -6.035752 -0.060870 -89.509029 -0.099349 7.567380 -2.121154 -0.191758 -0.032611 0.795064 0.000000 0.000000 0.000000 0.000000 0.000000 0.000000 0.000000 4.257320 0.956319 -1.022002 81.560950 59.020028 18.059975 -1.447876 64.778407 -0.175793 -10.563349 15.602081 -1.518048 -0.107536 -0.839064 -0.000000 0.000000 0.000000 0.000000 0.000000 0.000000 0.000000 
